# xmcd CD database file
#
# Track frame offsets:
#	182
#	8675
#	13925
#	17000
#	47525
#	54450
#	58175
#	62100
#	84350
#	99450
#	105262
#	108875
#	143625
#	153900
#	162500
#	171900
#	192000
#
# Disc length: 2684 seconds
#
# Revision: 1
# Processed by: cddbd v1.5.2PL0 Copyright (c) Steve Scherf et al.
# Submitted via: CDex 1.79
#
DISCID=cc0a7a11
DTITLE=Giorgio Gaslini - Schumann Reflections
DYEAR=1984
DGENRE=Jazz
TTITLE0=Von Fremden Landern Und Manschen
TTITLE1=Kuriose Geschichte
TTITLE2=Hasche-Mann
TTITLE3=Schumann Reflections -(I mov)
TTITLE4=Bittendes Kind
TTITLE5=Gluckes Genus
TTITLE6=Wichtige Begebenheit
TTITLE7=Schumann Reflections -(II mov)
TTITLE8=Traumerei
TTITLE9=Am Kamin
TTITLE10=Ritter Vom Steckenpferd
TTITLE11=Schumann Reflections -(III mov- Lullaby)
TTITLE12=Fast Zu Ernst
TTITLE13=Furchtenmachen
TTITLE14=Kind Im Einschlummern
TTITLE15=Schumann Reflections -(IV mov)
TTITLE16=Der Dichter Spricht
EXTD=YEAR: 1984
EXTT0=
EXTT1=
EXTT2=
EXTT3=
EXTT4=
EXTT5=
EXTT6=
EXTT7=
EXTT8=
EXTT9=
EXTT10=
EXTT11=
EXTT12=
EXTT13=
EXTT14=
EXTT15=
EXTT16=
PLAYORDER=
